<svg id="Capa_1_copia" data-name="Capa 1 copia" xmlns="http://www.w3.org/2000/svg" viewBox="0 0 199 240"><defs><style>.cls-1{fill:#169d99;}</style></defs><path class="cls-1" d="M239.5,194.15h59c0-33.13-26.42-60-59-60s-59,26.87-59,60,26.42,60,59,60Z" transform="translate(-99.5 -95.15)"/><path class="cls-1" d="M159.5,195.15a80,80,0,0,1,80-80v-20c-.67,0-1.33,0-2,0-53.57,0-97,44.78-97,100s43.43,100,97,100l2,0v-20A80,80,0,0,1,159.5,195.15Z" transform="translate(-99.5 -95.15)"/><path class="cls-1" d="M119.5,195.2v0H99.59c0,1.51-.09,3-.09,4.54,0,74.81,62.23,135.46,139,135.46h1v-19C173,315,119.5,261.3,119.5,195.2Z" transform="translate(-99.5 -95.15)"/></svg>