<svg id="turne2bn" xmlns="http://www.w3.org/2000/svg" viewBox="0 0 740.44 240"><defs><style>.cls-1,.cls-2{fill:#fff;}.cls-2{stroke:#000;stroke-miterlimit:10;}</style></defs><path class="cls-1" d="M146.47,114.45h59c0-33.14-26.42-60-59-60s-59,26.86-59,60,26.42,60,59,60Z" transform="translate(-6.47 -15.45)"/><path class="cls-1" d="M66.47,115.45a80,80,0,0,1,80-80v-20h-2c-53.57,0-97,44.77-97,100s43.43,100,97,100h2v-20A80,80,0,0,1,66.47,115.45Z" transform="translate(-6.47 -15.45)"/><path class="cls-1" d="M26.47,115.5H6.56c0,1.51-.09,3-.09,4.53,0,74.77,62.23,135.42,139,135.42h1v-19C80,235.3,26.47,181.59,26.47,115.5Z" transform="translate(-6.47 -15.45)"/><path class="cls-1" d="M317.47,84.45v11h-41A21.52,21.52,0,0,0,271,96a20,20,0,0,0-7,3c-1.56,1.1-6.89,4.86-7,11-.09,5.48,4.05,9.16,5,10a20.2,20.2,0,0,0,9,4,32.38,32.38,0,0,0,4.7.46h29.78v-9h-19v-11h31v31h-44a26.69,26.69,0,0,1-5.49-.54,29.78,29.78,0,0,1-6-2,29,29,0,0,1-7.73-4.75A25.69,25.69,0,0,1,246,111.91a22.27,22.27,0,0,1,0-4c.77-7.75,5.77-12.77,8-15a29,29,0,0,1,11-7,26.59,26.59,0,0,1,4-1h0a37.74,37.74,0,0,1,4.49-.46C276.65,84.3,293.88,84.27,317.47,84.45Z" transform="translate(-6.47 -15.45)"/><path class="cls-2" d="M273,134" transform="translate(-6.47 -15.45)"/><path class="cls-2" d="M253,121" transform="translate(-6.47 -15.45)"/><polygon class="cls-1" points="325.02 69 396.96 69 396.96 79.96 335.97 79.96 335.97 88.97 376.85 88.97 376.85 100 335.97 100 335.97 108.97 396.96 108.97 396.96 120.04 325.02 120.04 325.02 69"/><path class="cls-1" d="M482,94c-6.44-7-15-8.46-18-9a35.37,35.37,0,0,0-4.6-.51h-41.9v51c20.25.69,33.64.39,41.9,0a32.25,32.25,0,0,0,4.6-.54c3.28-.6,11.65-2.15,18-9,1.78-1.92,7-7.55,7-16S483.78,95.9,482,94Zm-9,26a18.56,18.56,0,0,1-8,4,23,23,0,0,1-2.5.5c-6.29.76-30.68.09-34,0v-29h34A15,15,0,0,1,466,96a16.7,16.7,0,0,1,7,4c1.43,1.37,5,4.79,5,10C478,115.45,474.05,119,473,120Z" transform="translate(-6.47 -15.45)"/><path class="cls-1" d="M746.47,83.45V94.21h-57A4.43,4.43,0,0,0,688,95a5.61,5.61,0,0,0-2,4c0,.25-.22,3.34,2,5a5,5,0,0,0,1.49.74h44a15.52,15.52,0,0,1,0,30.76h-58v-11h56a4.64,4.64,0,1,0,0-9.13h-45a14,14,0,0,1-3.52-1.39c-5-2.81-8.18-8.86-8-15a17.1,17.1,0,0,1,8-14,15.11,15.11,0,0,1,3.52-1.48Z" transform="translate(-6.47 -15.45)"/><path class="cls-1" d="M574.47,83.45V94.21h-57A4.43,4.43,0,0,0,516,95a5.61,5.61,0,0,0-2,4c0,.25-.22,3.34,2,5a5,5,0,0,0,1.49.74h44a15.52,15.52,0,0,1,0,30.76h-58v-11h56a4.64,4.64,0,1,0,0-9.13h-45a14,14,0,0,1-3.52-1.39c-5-2.81-8.18-8.86-8-15a17.1,17.1,0,0,1,8-14,15.11,15.11,0,0,1,3.52-1.48Z" transform="translate(-6.47 -15.45)"/><path class="cls-1" d="M589.47,83.45h11c-.24,1.87-.83,8.47,3.48,13.5,2.38,2.77,5.25,3.91,8,5a31.85,31.85,0,0,0,13,2,38.57,38.57,0,0,0,12-2c3.75-1.32,6.63-2.34,9-5,4.3-4.83,3.7-11.5,3.44-13.5h11c.19,3.43.43,15.33-7.45,22.5a32.38,32.38,0,0,1-8,5,43.75,43.75,0,0,1-14.48,4v20.5H619.41V115A34.84,34.84,0,0,1,604,111a29.79,29.79,0,0,1-7-5C589.18,98.2,589.33,86.71,589.47,83.45Z" transform="translate(-6.47 -15.45)"/><path class="cls-2" d="M638,120" transform="translate(-6.47 -15.45)"/><path class="cls-1" d="M274.17,168.67l.21.21c-.14,1.41-.21,3.87-.21,7.36l-.19.19h-1.1l-.19-.21-.26-2.16a16.88,16.88,0,0,0-.29-2.12.92.92,0,0,0-.34-.56,4,4,0,0,0-1.52-.3c-.86-.07-1.82-.11-2.88-.11H263c-.12,3.53-.19,5.56-.19,6.11v13.67l.05,4.57a32.14,32.14,0,0,0,.12,3.43,2.08,2.08,0,0,0,.33,1,1.78,1.78,0,0,0,.86.42,18.41,18.41,0,0,0,3.14.27l.16.14v1.18l-.16.18c-4-.12-6.24-.18-6.7-.18s-2.73.06-6.68.18l-.19-.18v-1.18l.19-.14a25.56,25.56,0,0,0,2.91-.23,2.08,2.08,0,0,0,1-.36,1.75,1.75,0,0,0,.41-1,18.48,18.48,0,0,0,.17-3.24l.05-4.94V177.08c0-.25-.07-2.29-.19-6.11h-3.49c-1.44,0-2.68,0-3.73.09s-1.65.22-1.82.48a9,9,0,0,0-.45,2.52l-.24,2.16-.21.21h-1.08l-.18-.19q-.06-5.66-.22-7.36l.22-.21q4.08.18,13.57.19T274.17,168.67Z" transform="translate(-6.47 -15.45)"/><path class="cls-1" d="M290.12,179.45l.45.31q-.24,3.06-.26,7.8V193a13,13,0,0,0,.46,4.17,3.48,3.48,0,0,0,1.58,1.8,5.55,5.55,0,0,0,2.67.62,7.27,7.27,0,0,0,3.12-.67,6.41,6.41,0,0,0,2.33-1.89,6.89,6.89,0,0,0,1.09-1.64,11,11,0,0,0,.19-2.37l.07-2.62v-2.53c0-.63,0-1.48-.09-2.56s-.11-1.74-.15-2a.69.69,0,0,0-.37-.55,2.79,2.79,0,0,0-1.22-.18h-2l-.22-.19v-1l.19-.19a30.53,30.53,0,0,0,7.61-1.77l.44.31q-.25,3.06-.25,7.8v4.12c0,.24,0,2.15.11,5.75a9.39,9.39,0,0,0,.25,2.42,1.26,1.26,0,0,0,.55.61,6.71,6.71,0,0,0,2.09.18h.65l.21.19v.93l-.18.21c-2.21-.12-3.68-.18-4.43-.18a24.72,24.72,0,0,0-3.31.16l-.21-.19c.09-1.59.17-2.94.21-4a36.3,36.3,0,0,0-3.37,3.07,5.65,5.65,0,0,1-2.09,1.22,9,9,0,0,1-3.09.49,8.38,8.38,0,0,1-4.09-.83,4.75,4.75,0,0,1-2.08-2.3,14.83,14.83,0,0,1-.61-5v-6.42c0-.63,0-1.48-.1-2.56s-.11-1.74-.15-2a.72.72,0,0,0-.36-.55,2.79,2.79,0,0,0-1.22-.18h-2l-.21-.19v-1l.19-.19A30.54,30.54,0,0,0,290.12,179.45Z" transform="translate(-6.47 -15.45)"/><path class="cls-1" d="M326.68,179.45l.44.31c-.09.9-.16,2.51-.21,4.82l1.76-2.22a13.82,13.82,0,0,1,1.54-1.7,4.86,4.86,0,0,1,1.56-.93,5.18,5.18,0,0,1,1.82-.33,4.51,4.51,0,0,1,2,.43l.16.32q-.36,3.12-.42,5.49h-1a3.16,3.16,0,0,0-3-2.16,3.79,3.79,0,0,0-2.53.93,4.46,4.46,0,0,0-1.44,2.32,15,15,0,0,0-.36,3.53v2.6c0,.47,0,1.61.09,3.44a30.48,30.48,0,0,0,.2,3.17,1.06,1.06,0,0,0,.91.89c.25,0,1.36.12,3.34.23l.21.19v1l-.21.21c-2.07-.12-4.25-.18-6.51-.18-1.8,0-3.67.06-5.63.18l-.21-.21v-1l.21-.19c1.52-.09,2.37-.16,2.57-.21a1.12,1.12,0,0,0,.52-.29,1.24,1.24,0,0,0,.3-.68c.05-.31.12-1.32.19-3s.1-3,.1-3.88v-4.61c0-.63,0-1.48-.09-2.56s-.11-1.74-.15-2a.69.69,0,0,0-.37-.55,2.79,2.79,0,0,0-1.22-.18h-2l-.21-.19v-1l.18-.19A30.64,30.64,0,0,0,326.68,179.45Z" transform="translate(-6.47 -15.45)"/><path class="cls-1" d="M351.38,179.45l.44.31c-.09,1-.15,2.42-.19,4.12q1.89-1.55,3.57-3.14a4.2,4.2,0,0,1,.92-.66,7.47,7.47,0,0,1,1.44-.44,9.07,9.07,0,0,1,2.07-.24,8.51,8.51,0,0,1,3.45.73,6.78,6.78,0,0,1,2.53,1.72,5.56,5.56,0,0,1,1.19,2.36,14.48,14.48,0,0,1,.33,3.35v4.12c0,.27,0,2.22.11,5.84,0,1.48.2,2.37.5,2.65s1.26.42,2.9.42l.19.19v1l-.19.18c-2-.12-3.33-.18-4-.18q-.6,0-3.42.18l-.28-.25c.2-2,.3-4.68.3-8v-3.07a31.68,31.68,0,0,0-.13-4,4.78,4.78,0,0,0-.78-2.22,4.47,4.47,0,0,0-1.76-1.55,5.9,5.9,0,0,0-2.62-.55,7.81,7.81,0,0,0-2.09.25,6.55,6.55,0,0,0-1.95,1,7.72,7.72,0,0,0-1.59,1.43,3,3,0,0,0-.62,1.24,18.19,18.19,0,0,0-.11,2.45v4.08c0,.34,0,1.45.1,3.31a32.43,32.43,0,0,0,.2,3.27,1.41,1.41,0,0,0,.31.68,1.09,1.09,0,0,0,.52.27c.2,0,1,.11,2.53.2l.21.19v1l-.19.21c-1.95-.12-3.83-.18-5.65-.18s-3.67.06-5.62.18l-.21-.21v-1l.21-.19c1.52-.09,2.37-.16,2.57-.21a1.08,1.08,0,0,0,.51-.29,1.25,1.25,0,0,0,.31-.68q.09-.47.18-3c.07-1.71.11-3,.11-3.88v-4.61c0-.63,0-1.48-.09-2.56s-.12-1.74-.16-2a.72.72,0,0,0-.36-.55,2.79,2.79,0,0,0-1.22-.18h-2l-.21-.19v-1l.19-.19A30.51,30.51,0,0,0,351.38,179.45Z" transform="translate(-6.47 -15.45)"/><path class="cls-1" d="M379.73,168.83l.19-.16q8,.14,10.29.14,7.68,0,13.68-.14l.12.16a40.91,40.91,0,0,0-.87,7.06l-.14.19h-1.15l-.21-.19a2.41,2.41,0,0,0,0-.38,22.89,22.89,0,0,0-.31-3.79,12.66,12.66,0,0,0-4.09-.86c-1.74-.13-3.05-.2-3.92-.2-1.24,0-2.82.09-4.74.26l-.09,3.75-.07,4.29-.07,4.76c1.68.09,3.24.14,4.66.14a27.45,27.45,0,0,0,3.61-.14,6.13,6.13,0,0,0,1.7-.3,1,1,0,0,0,.37-.58,7.25,7.25,0,0,0,.23-1.54l.09-1.45.19-.19h1.08l.18.19c0,1.7-.07,3.41-.11,5.13l.11,5.28-.18.18H399.2l-.19-.18-.16-1.41a15.11,15.11,0,0,0-.31-2,1,1,0,0,0-.43-.55,4.77,4.77,0,0,0-1.75-.37c-.93-.1-2.22-.14-3.86-.14-.91,0-2.29,0-4.15.11-.08,1.32-.12,3.5-.12,6.56,0,3.29,0,5.7.12,7.25h4.31c3.8,0,6.18-.05,7.12-.14a9.37,9.37,0,0,0,2.72-.68c.14-.36.37-1.19.69-2.5s.51-2.12.56-2.45l.23-.16h1.13l.18.16c-.19,1.17-.33,2.34-.41,3.52-.13,1.67-.2,3.1-.2,4.29l-.16.18c-3-.09-6.89-.14-11.72-.14h-6.37q-2.24,0-4.65.18l-.18-.18V201l.18-.23a11.7,11.7,0,0,0,1.59-.88,18.21,18.21,0,0,0,.32-4.1c.09-2.62.13-4.61.13-6V175.88c0-1.16,0-2.1-.05-2.83a8.07,8.07,0,0,0-.16-1.55,1.59,1.59,0,0,0-.27-.66,1.08,1.08,0,0,0-.49-.32,5.53,5.53,0,0,0-1.16-.22l-1.78-.14-.19-.16Z" transform="translate(-6.47 -15.45)"/><path class="cls-1" d="M436.55,201.75H416.77v-15a4.28,4.28,0,0,1,1.29-3.1,4.14,4.14,0,0,1,3.06-1.3h13.2V171.76H418.79a2.08,2.08,0,0,1-1.55-.64,2.15,2.15,0,0,1-.62-1.54,2.2,2.2,0,0,1,.62-1.54,2.1,2.1,0,0,1,1.55-.63h15.53a4.31,4.31,0,0,1,3.11,1.28,4.14,4.14,0,0,1,1.29,3.07v10.58a4.38,4.38,0,0,1-4.38,4.4H421.12v10.71h15.43a2.11,2.11,0,0,1,1.52.64,2.15,2.15,0,0,1,0,3l0,0A2.09,2.09,0,0,1,436.55,201.75Z" transform="translate(-6.47 -15.45)"/></svg>