<svg id="turnp3" xmlns="http://www.w3.org/2000/svg" viewBox="0 0 766 266"><defs><style>.cls-1,.cls-5{fill:#169d99;}.cls-2{font-size:48px;font-family:PalatinoLinotype-Roman, Palatino Linotype;letter-spacing:0.08em;}.cls-2,.cls-4{fill:#515050;}.cls-3{letter-spacing:0.14em;}.cls-5{font-size:53px;font-family:OCRAExtended, OCR A Extended;letter-spacing:0.14em;}</style></defs><path class="cls-1" d="M147,115h59c0-33.14-26.42-60-59-60S88,81.86,88,115s26.42,60,59,60Z"/><path class="cls-1" d="M67,116a80,80,0,0,1,80-80V16c-.67,0-1.33,0-2,0C91.43,16,48,60.77,48,116s43.43,100,97,100c.67,0,1.33,0,2,0V196A80,80,0,0,1,67,116Z"/><path class="cls-1" d="M27,116.05v0H7.09c0,1.51-.09,3-.09,4.53C7,195.35,69.23,256,146,256h1V237C80.53,235.85,27,182.14,27,116.05Z"/><text class="cls-2" transform="translate(246.41 200.32)">T<tspan class="cls-3" x="33.04" y="0">urnE</tspan></text><path class="cls-4" d="M318,85V96H277a21.47,21.47,0,0,0-5.48.54,20.08,20.08,0,0,0-7,3c-1.56,1.1-6.89,4.86-7,11-.09,5.48,4.05,9.16,5,10a20.2,20.2,0,0,0,9,4,32.19,32.19,0,0,0,4.7.46H277c3.72,0,14.43,0,29,0v-9H287V105h31V136H274a26.42,26.42,0,0,1-5.49-.54,29.56,29.56,0,0,1-6-2,28.85,28.85,0,0,1-7.73-4.75,25.67,25.67,0,0,1-8.27-16.25,21.86,21.86,0,0,1,0-4c.77-7.75,5.77-12.77,8-15a28.91,28.91,0,0,1,11-7,25.91,25.91,0,0,1,4-1h0A38.06,38.06,0,0,1,274,85C277.18,84.85,294.41,84.82,318,85Z"/><polygon class="cls-4" points="332.02 85 403.96 85 403.96 95.96 342.97 95.96 342.97 104.97 383.85 104.97 383.85 116 342.97 116 342.97 124.97 403.96 124.97 403.96 136.04 332.02 136.04 332.02 85"/><path class="cls-4" d="M482.5,94.5c-6.44-7-15-8.46-18-9a34.73,34.73,0,0,0-4.6-.51H418V136c20.25.69,33.64.39,41.9,0a33.14,33.14,0,0,0,4.6-.54c3.28-.6,11.65-2.15,18-9,1.78-1.92,7-7.55,7-16S484.31,96.45,482.5,94.5Zm-9,26a18.65,18.65,0,0,1-8,4A23.18,23.18,0,0,1,463,125c-6.29.76-30.68.09-34,0V96h34a15.24,15.24,0,0,1,3.53.54,16.71,16.71,0,0,1,7,4c1.43,1.37,5,4.79,5,10C478.5,116,474.58,119.52,473.5,120.5Z"/><path class="cls-4" d="M747,84V94.76H690a4.44,4.44,0,0,0-1.49.74,5.57,5.57,0,0,0-2,4c0,.25-.22,3.34,2,5a4.86,4.86,0,0,0,1.49.74h44A15.52,15.52,0,0,1,734,136H676V125h56a4.64,4.64,0,1,0,0-9.13H687a14.07,14.07,0,0,1-3.52-1.39c-5-2.81-8.18-8.86-8-15a17.09,17.09,0,0,1,8-14A14.72,14.72,0,0,1,687,84Z"/><path class="cls-4" d="M575,84V94.76H518a4.44,4.44,0,0,0-1.49.74,5.57,5.57,0,0,0-2,4c0,.25-.22,3.34,2,5a4.86,4.86,0,0,0,1.49.74h44A15.52,15.52,0,0,1,562,136H504V125h56a4.64,4.64,0,1,0,0-9.13H515a14.07,14.07,0,0,1-3.52-1.39c-5-2.81-8.18-8.86-8-15a17.09,17.09,0,0,1,8-14A14.72,14.72,0,0,1,515,84Z"/><path class="cls-4" d="M590,84h11c-.24,1.87-.83,8.47,3.48,13.5,2.38,2.77,5.25,3.91,8,5a31.84,31.84,0,0,0,13,2,38.67,38.67,0,0,0,12-2c3.75-1.32,6.63-2.34,9-5,4.3-4.83,3.7-11.5,3.44-13.5h11c.19,3.43.43,15.33-7.45,22.5a32.46,32.46,0,0,1-8,5,43.84,43.84,0,0,1-14.48,4V136H619.94V115.5a34.79,34.79,0,0,1-15.44-4,29.87,29.87,0,0,1-7-5C589.71,98.75,589.86,87.26,590,84Z"/><text class="cls-5" transform="translate(407.65 200.65)">2</text></svg>